<svg width="207" height="112" viewBox="0 0 207 112" fill="none" xmlns="http://www.w3.org/2000/svg">
<path d="M199.101 0.288702C199.915 0.424274 201.135 0.424274 201.813 0.288702C202.423 0.0853442 201.745 -0.0502277 200.254 0.0175582C198.762 0.0175582 198.22 0.15313 199.101 0.288702Z" fill="white" fill-opacity="0.8"/>
<path d="M195.034 0.966325C195.508 1.16968 196.118 1.1019 196.322 0.898539C196.593 0.695181 196.186 0.491823 195.441 0.559609C194.695 0.559609 194.492 0.762967 195.034 0.966325Z" fill="white" fill-opacity="0.8"/>
<path d="M192.323 1.64455C192.797 1.84791 193.408 1.78012 193.611 1.57676C193.882 1.3734 193.475 1.17005 192.73 1.23783C191.984 1.23783 191.781 1.44119 192.323 1.64455Z" fill="white" fill-opacity="0.8"/>
<path d="M188.391 2.52542C187.171 3.33886 188.256 3.33886 190.086 2.52542C190.967 2.11871 191.103 1.91535 190.425 1.91535C189.882 1.91535 188.933 2.18649 188.391 2.52542Z" fill="white" fill-opacity="0.8"/>
<path d="M183.511 4.55897C182.155 5.30462 179.444 7.47377 177.41 9.37177L173.817 12.8289L177.478 9.64292C179.511 7.88048 182.562 5.77912 184.256 4.8979C186.019 4.01669 187.103 3.27104 186.697 3.27104C186.358 3.27104 184.934 3.88111 183.511 4.55897Z" fill="white" fill-opacity="0.8"/>
<path d="M199.779 4.28787C197.203 5.64359 197.339 6.18587 199.915 4.89794C201.067 4.28787 201.948 3.6778 201.948 3.54222C201.948 3.06772 201.88 3.13551 199.779 4.28787Z" fill="white" fill-opacity="0.8"/>
<path d="M204.185 6.05061C203.44 6.93183 202.152 8.82984 201.271 10.3211C199.102 13.9138 198.153 14.5916 194.289 15.1339C190.56 15.6762 189.34 16.6252 193.001 16.2185L195.441 15.8796L192.865 18.1843C191.442 19.4044 188.595 22.5226 186.561 25.0307C182.494 30.1824 176.393 35.063 174.089 35.063C172.123 35.063 172.597 35.4697 175.309 35.9442C176.936 36.2831 177.41 36.1476 177.139 35.4697C176.936 34.9274 178.088 33.7073 180.054 32.4871C181.884 31.3348 184.934 28.2166 187.036 25.573C189.069 22.8615 192.797 19.1333 195.441 17.0997C198.085 15.1339 200.864 12.4903 201.542 11.2023C202.22 9.9822 203.779 7.94862 204.863 6.72847C206.016 5.57611 206.626 4.55932 206.287 4.55932C205.88 4.55932 204.931 5.23718 204.185 6.05061Z" fill="white" fill-opacity="0.8"/>
<path d="M195.441 6.99967C194.221 7.94867 194.221 8.01646 195.712 7.27081C196.525 6.8641 197.203 6.3896 197.203 6.25403C197.203 5.71174 196.864 5.84731 195.441 6.99967Z" fill="white" fill-opacity="0.8"/>
<path d="M190.357 10.4565C189.476 11.5411 189.544 11.6088 190.628 10.7276C191.238 10.2531 191.781 9.71084 191.781 9.57527C191.781 9.03298 191.238 9.37191 190.357 10.4565Z" fill="white" fill-opacity="0.8"/>
<path d="M186.968 13.1682L185.341 15.0662L187.239 13.4393C188.933 11.8802 189.408 11.3379 188.866 11.3379C188.73 11.3379 187.917 12.1514 186.968 13.1682Z" fill="white" fill-opacity="0.8"/>
<path d="M178.901 20.3531C175.715 23.4713 172.529 26.4539 171.784 26.9961C171.038 27.5384 166.496 32.2157 161.684 37.4352C154.227 45.4339 155.379 44.4849 168.937 30.9955C177.749 22.2511 185.002 14.998 185.002 14.9303C185.002 14.4557 184.324 15.0658 178.901 20.3531Z" fill="white" fill-opacity="0.8"/>
<path d="M170.157 19.8789C170.157 20.6246 170.36 20.8279 170.564 20.2857C170.767 19.8112 170.699 19.2011 170.496 18.9977C170.292 18.7266 170.089 19.1333 170.157 19.8789Z" fill="white" fill-opacity="0.8"/>
<path d="M163.243 21.3022C162.362 22.3868 162.429 22.4546 163.514 21.5733C164.124 21.0988 164.666 20.5565 164.666 20.421C164.666 19.8787 164.124 20.2176 163.243 21.3022Z" fill="white" fill-opacity="0.8"/>
<path d="M170.835 23.2681C170.835 24.0138 171.038 24.2171 171.241 23.6748C171.445 23.2003 171.377 22.5902 171.174 22.3869C170.97 22.1157 170.767 22.5225 170.835 23.2681Z" fill="white" fill-opacity="0.8"/>
<path d="M156.532 29.9791C151.448 35.8765 149.075 39.9436 149.143 42.4517C149.143 43.6719 149.414 43.2651 150.024 41.0282C150.973 37.5711 151.041 37.4356 156.193 31.3348C160.463 26.1831 161.48 24.8952 161.141 24.8952C161.006 24.8952 158.904 27.1999 156.532 29.9791Z" fill="white" fill-opacity="0.8"/>
<path d="M166.564 36.215C167.378 36.3505 168.598 36.3505 169.276 36.215C169.886 36.0116 169.208 35.876 167.716 35.9438C166.225 35.9438 165.683 36.0794 166.564 36.215Z" fill="white" fill-opacity="0.8"/>
<path d="M165.818 41.9092C163.649 43.4005 161.955 44.7562 161.955 44.9596C161.955 45.2985 168.055 41.1636 169.75 39.6723C171.445 38.181 169.208 39.4011 165.818 41.9092Z" fill="white" fill-opacity="0.8"/>
<path d="M149.143 45.163C149.143 45.7053 147.381 48.01 145.279 50.3826C143.178 52.7551 141.958 54.5175 142.568 54.3141C143.178 54.1108 144.737 52.4161 146.025 50.5181C148.737 46.7899 150.499 46.451 152.329 49.1624C153.278 50.5859 153.21 50.7893 150.363 53.2296C148.737 54.5853 146.567 56.6189 145.551 57.7034L143.585 59.6692L142.568 58.2457C141.416 56.5511 139.382 56.2121 139.992 57.7712C140.263 58.3135 140.67 58.5846 141.009 58.3813C141.348 58.1779 141.619 58.5169 141.619 59.0591C141.619 61.2283 144.127 60.0082 148.94 55.3987C153.143 51.3993 153.888 50.4503 153.414 49.1624C152.939 47.5355 151.922 46.5865 150.635 46.5865C150.228 46.5865 149.686 46.0443 149.55 45.3664C149.347 44.6885 149.211 44.6207 149.143 45.163Z" fill="white" fill-opacity="0.8"/>
<path d="M159.243 46.2476C158.294 46.7899 157.888 47.1966 158.294 47.2644C158.633 47.2644 159.582 46.7899 160.328 46.2476C161.955 45.0275 161.412 44.9597 159.243 46.2476Z" fill="white" fill-opacity="0.8"/>
<path d="M155.718 47.7388C156.193 47.9421 156.803 47.8744 157.006 47.671C157.278 47.4676 156.871 47.2643 156.125 47.3321C155.38 47.3321 155.176 47.5354 155.718 47.7388Z" fill="white" fill-opacity="0.8"/>
<path d="M9.02961 53.5683C2.99666 59.6012 0.556367 64.2785 0.0818655 71.1248C-0.32485 77.0222 0.759725 80.5471 3.87788 83.3263C5.97924 85.1565 6.6571 85.3599 9.30075 85.021C11.6055 84.7498 12.8934 84.1397 14.7236 82.3095L17.0961 79.8692L22.2479 84.682C25.0271 87.2579 27.4674 89.0881 27.603 88.6814C27.7385 88.2747 26.8573 87.1223 25.5694 86.1055C24.3492 85.021 22.1123 83.123 20.6888 81.7672L18.0451 79.3269L19.8076 74.8531C22.3157 68.6168 23.3324 61.7704 22.3834 57.3643C21.0277 51.2636 18.9941 48.6199 15.5371 48.6199C14.6558 48.6199 12.1478 50.5179 9.02961 53.5683ZM19.1975 51.6703C20.6888 53.975 20.5532 54.2461 18.2485 53.026C17.1639 52.4837 15.2659 52.0092 14.0458 52.0092C11.9444 51.9414 11.8766 51.9414 13.0968 50.9924C15.1981 49.4333 17.9096 49.7045 19.1975 51.6703ZM18.6552 54.5173C19.4009 54.9918 20.2143 55.1951 20.4854 54.9918C21.2311 54.2461 21.8412 59.6012 21.4344 63.804C21.0955 67.5322 18.3841 76.4799 17.2995 77.6323C17.0283 77.8357 15.3337 76.5477 13.5035 74.7175C11.6055 72.8873 10.1142 71.6671 10.1142 72.0061C10.1142 72.345 11.5377 74.1074 13.3679 75.9376L16.5538 79.1914L14.0458 81.5639C12.08 83.3263 10.9276 83.8686 8.89404 83.8686C3.67452 83.8686 1.03087 80.0726 1.03087 72.5483C1.09865 68.2778 1.43758 66.9899 3.53895 62.6516C4.89467 59.9402 6.6571 57.0932 7.47053 56.3475C8.96182 55.0596 8.96182 55.0596 8.41953 56.4153C6.45374 61.4315 4.96245 68.9557 5.91146 68.9557C6.25039 68.9557 6.86046 66.9221 7.33496 64.414C8.48732 58.1099 10.5887 53.5005 12.3511 53.1616C14.3169 52.8226 16.8928 53.3649 18.6552 54.5173Z" fill="white" fill-opacity="0.8"/>
<path d="M49.1587 50.1111C48.0064 51.8736 45.0916 61.6347 44.3459 66.1764C44.007 68.4133 43.058 70.0402 40.7533 72.4805C39.1264 74.2429 37.4317 75.7342 37.025 75.7342C36.6183 75.7342 36.4827 74.4463 36.7539 72.6838C36.8895 70.9892 36.8217 69.6335 36.5505 69.769C36.2794 69.9046 34.9915 71.3281 33.7713 72.955C30.5854 77.1577 29.433 77.3611 29.9753 73.7684C30.1787 72.2771 30.1109 70.9892 29.9075 70.9892C29.7042 70.9892 28.6196 71.8026 27.535 72.8194L25.5014 74.7174L25.9081 72.006C26.3149 69.4979 26.2471 69.4301 25.3659 70.5825C24.0779 72.2771 24.0779 73.9718 25.3659 75.0563C26.2471 75.7342 26.6538 75.6664 27.8061 74.6496C28.7551 73.7684 29.0263 73.7006 28.7551 74.4463C28.5518 74.9886 28.8229 76.0054 29.3652 76.751C30.3142 78.0389 30.4498 78.0389 32.7545 75.802C34.3136 74.2429 35.1948 73.7684 35.1948 74.4463C35.1948 77.3611 37.7707 77.2255 41.16 74.1751C41.9734 73.4295 42.6513 72.955 42.6513 73.1583C42.6513 73.3617 42.0412 76.3443 41.2955 79.8691C39.8043 86.9189 39.6009 90.2404 40.6177 89.6303C41.0244 89.427 41.2955 88.2746 41.2955 87.19C41.2955 86.0377 42.3801 80.0047 43.7358 73.8362C45.5661 65.2952 46.7862 61.228 48.8198 57.1609C50.2433 54.1783 51.4634 51.2635 51.4634 50.5856C51.4634 48.6876 50.2433 48.4165 49.1587 50.1111Z" fill="white" fill-opacity="0.8"/>
<path d="M54.0395 49.5691C52.4126 51.1281 50.718 56.9577 47.532 71.7351C44.0749 87.597 43.6682 89.9695 44.6172 89.9695C45.0239 89.9695 45.3629 89.7661 45.4307 89.4272C46.1085 80.4795 50.3112 62.9907 53.226 57.1611C54.7173 54.0429 55.5308 51.4671 55.3952 50.3147C55.1918 48.4845 55.124 48.4167 54.0395 49.5691ZM53.565 53.8396C52.7515 55.1953 52.616 54.7886 53.226 53.0262C53.4972 52.4161 53.8361 52.0771 53.9717 52.2805C54.175 52.4161 53.9717 53.1617 53.565 53.8396Z" fill="white" fill-opacity="0.8"/>
<path d="M62.5126 53.2971C57.1575 58.4488 55.3273 61.4314 53.7682 67.7355C50.3112 81.0215 60.6146 90.7827 68.6812 81.9027C69.4268 81.0893 70.2402 80.4792 70.5792 80.4792C70.9859 80.4792 73.155 82.3094 75.4597 84.5464C77.8323 86.7833 80.0692 88.6135 80.4759 88.6135C80.8826 88.6135 78.9846 86.3766 76.1376 83.6652L71.0537 78.7846L72.4772 75.9376C77.0188 66.5153 76.951 55.1273 72.3416 50.1789C69.8335 47.4675 67.7999 48.1453 62.5126 53.2971ZM72.4094 51.8058C74.1718 54.0427 73.9007 54.3816 71.3926 53.0259C70.308 52.4836 68.5456 52.0091 67.461 52.0091C65.8341 52.0091 65.6308 51.8736 66.3764 50.9923C67.7321 49.3655 70.8503 49.7722 72.4094 51.8058ZM71.1214 54.1783C74.104 55.534 74.3752 55.8729 74.7819 58.5166C75.392 62.9904 73.7651 71.1248 71.3248 76.0053L70.308 77.9033L66.9865 74.6496C62.716 70.4469 61.9026 71.2603 66.0375 75.6664C68.7489 78.5812 69.0879 79.1913 68.41 80.4114C67.461 82.3094 64.2751 83.8685 61.4281 83.8685C58.5133 83.8685 55.124 80.4114 54.4461 76.6832C53.3615 70.7858 56.2763 60.8213 60.1401 57.2964C61.6992 55.8729 61.8348 55.8729 61.3603 57.0931C60.1401 60.4146 58.8522 66.4475 59.0555 67.8032C59.1911 68.6845 59.8012 67.1932 60.4791 64.3462C62.1059 57.2286 63.8684 53.5682 65.8341 53.1615C66.6476 53.0259 67.5288 52.8226 67.6644 52.7548C67.7999 52.7548 69.359 53.3648 71.1214 54.1783Z" fill="white" fill-opacity="0.8"/>
<path d="M113.488 52.8229C113.352 53.2974 112.946 54.7887 112.607 56.0766L112.064 58.4491L106.506 58.6525C99.3205 58.9236 99.2528 60.1438 106.438 60.1438C111.319 60.1438 111.861 60.2794 111.522 61.2961C111.319 61.974 110.776 64.0076 110.37 65.9056C109.76 68.4137 108.539 70.4472 105.828 73.5654L102.032 77.8359L100.473 75.26C97.9648 71.1251 98.6427 67.6002 101.896 67.6002C102.845 67.6002 103.049 67.3969 102.506 66.8546C101.422 65.77 99.3205 67.1257 96.948 70.5828C93.9655 74.8533 90.8473 77.3614 89.6949 76.3446C88.2714 75.1923 88.5426 72.6842 90.3728 70.515C92.7453 67.668 93.6265 65.7022 92.8131 65.2277C91.6607 64.5499 90.1017 66.2445 88.407 69.9727C87.5936 71.803 86.1701 74.1077 85.2889 75.0567L83.662 76.7513L83.4586 73.8365C83.1875 70.5828 82.5774 70.2439 81.0183 72.6842C79.5271 74.9211 78.5103 74.2432 78.9848 71.464C79.2559 69.8372 79.1881 69.566 78.6458 70.3117C77.6968 71.5996 77.6968 74.8533 78.6458 75.3956C78.9848 75.6668 79.9338 75.3278 80.6794 74.65C81.8996 73.5654 81.9673 73.5654 81.9673 75.26C81.9673 77.7681 83.1197 78.1748 85.4244 76.4802C87.3224 75.0567 87.3224 75.0567 88.0681 76.4124C89.2204 78.5138 91.4574 78.0393 94.5755 74.9889L97.3548 72.2775L99.2528 75.4634L101.151 78.7171L99.3205 81.9031C97.4225 85.2924 97.1514 86.9192 98.236 87.5971C99.5917 88.4105 102.303 84.7501 102.303 82.1064C102.303 80.1406 102.981 78.7849 105.489 75.6668C107.251 73.4976 108.743 71.803 108.811 71.8707C108.878 71.9385 108.065 76.4124 106.98 81.8353C104.947 92.2743 104.676 94.7146 105.625 94.7146C105.896 94.7146 106.37 92.9522 106.574 90.8508C106.777 88.7494 108.268 81.0218 109.827 73.6332L112.674 60.2794L118.436 59.7371C121.622 59.5337 126.299 59.4659 128.875 59.6693C131.722 59.9404 133.349 59.8048 133.146 59.3981C132.875 59.0592 128.333 58.7881 122.842 58.7881C114.572 58.7881 113.081 58.6525 113.352 57.8391C114.098 56.0088 114.64 52.0095 114.233 52.0095C113.962 52.0095 113.623 52.4162 113.488 52.8229ZM101.015 83.3944C100.405 84.9534 98.9138 86.5125 98.9138 85.5635C98.9138 84.7501 101.083 81.0218 101.354 81.3608C101.557 81.4963 101.354 82.4453 101.015 83.3944Z" fill="white" fill-opacity="0.8"/>
<path d="M139.585 55.4666C139.585 55.8055 139.924 55.9411 140.263 55.7377C140.67 55.5343 140.941 55.1954 140.941 54.9921C140.941 54.8565 140.67 54.7209 140.263 54.7209C139.924 54.7209 139.585 55.0598 139.585 55.4666Z" fill="white" fill-opacity="0.8"/>
<path d="M136.399 60.2792C135.179 61.7027 131.858 68.9558 132.264 69.3625C132.807 69.7692 141.28 64.0074 141.348 63.1262C141.483 62.4484 141.415 62.4484 141.212 63.0584C140.738 64.4142 136.128 66.4477 135.315 65.6343C134.433 64.7531 135.925 61.0926 137.823 59.8047C138.568 59.2624 138.907 58.7879 138.501 58.7879C138.094 58.7879 137.145 59.4658 136.399 60.2792ZM135.179 66.2444C135.382 66.5833 135.247 66.9222 134.908 66.9222C134.501 66.9222 134.162 66.5833 134.162 66.2444C134.162 65.8377 134.298 65.5665 134.433 65.5665C134.637 65.5665 134.976 65.8377 135.179 66.2444Z" fill="white" fill-opacity="0.8"/>
<path d="M136.874 62.9229C136.128 64.2108 136.196 64.2786 137.552 63.533C138.297 63.1263 138.772 62.5162 138.568 62.1095C137.958 61.2283 137.687 61.3638 136.874 62.9229Z" fill="white" fill-opacity="0.8"/>
<path d="M36.5508 66.99C36.5508 67.3289 36.8897 67.4645 37.2286 67.2611C37.6354 67.0578 37.9065 66.7189 37.9065 66.5155C37.9065 66.3799 37.6354 66.2444 37.2286 66.2444C36.8897 66.2444 36.5508 66.5833 36.5508 66.99Z" fill="white" fill-opacity="0.8"/>
<path d="M4.8269 105.696C3.67454 106.848 3.81011 109.356 5.09804 110.576C6.2504 111.729 8.48734 112 9.02963 111.051C9.23298 110.78 8.6907 110.644 7.87727 110.78C5.7759 111.186 4.42018 109.492 4.96247 107.187C5.36919 105.696 5.70812 105.492 7.40276 105.696C8.48734 105.831 9.23298 105.764 9.02963 105.425C8.48734 104.611 5.7759 104.747 4.8269 105.696Z" fill="white" fill-opacity="0.8"/>
<path d="M12.4188 106.577C11.4021 108.136 11.4021 108.407 12.4188 109.966C14.3168 112.813 18.2484 111.525 18.2484 108C18.2484 104.679 14.3168 103.73 12.4188 106.577ZM17.2994 107.255C18.1129 110.508 14.3168 112.474 12.8256 109.627C11.8088 107.729 13.0967 105.56 15.1981 105.56C16.4182 105.56 16.9605 106.034 17.2994 107.255Z" fill="white" fill-opacity="0.8"/>
<path d="M22.1802 105.492L24.4172 105.899L22.3836 108.272C21.2312 109.559 20.35 110.847 20.2822 111.119C20.2822 111.458 21.5702 111.593 23.197 111.525L26.044 111.458L23.4682 111.186L20.9601 110.915L23.4004 107.865L25.8407 104.882L22.9259 104.95C20.0789 105.086 20.0789 105.086 22.1802 105.492Z" fill="white" fill-opacity="0.8"/>
<path d="M27.7388 105.289C27.7388 105.628 28.2133 106.577 28.7556 107.323C29.2978 108 29.7723 109.356 29.8401 110.305L29.9757 112L30.2468 110.305C30.4502 109.424 30.9925 108.068 31.5348 107.323C32.0771 106.577 32.4838 105.628 32.4838 105.221C32.416 104.882 31.9415 105.357 31.3992 106.374C30.8569 107.458 30.2468 108.272 30.1113 108.272C29.9757 108.272 29.3656 107.458 28.8233 106.374C28.2811 105.357 27.8066 104.882 27.7388 105.289Z" fill="white" fill-opacity="0.8"/>
<path d="M39.3979 105.696C38.9234 106.17 38.5845 107.323 38.5845 108.272C38.5845 109.221 38.9234 110.373 39.3979 110.847C40.3469 111.796 43.0583 111.932 43.6006 111.051C43.804 110.78 43.2617 110.644 42.4483 110.78C40.5503 111.186 39.059 109.56 39.3979 107.458C39.5335 106.238 40.008 105.899 41.7704 105.899C42.9228 105.899 43.7362 105.696 43.5328 105.425C43.0583 104.611 40.2791 104.815 39.3979 105.696Z" fill="white" fill-opacity="0.8"/>
<path d="M46.8539 105.696C44.9559 107.594 46.7184 111.661 49.4298 111.661C50.1754 111.661 51.26 110.915 51.8701 109.966C52.8869 108.407 52.8869 108.136 51.8701 106.577C50.6499 104.747 48.2096 104.34 46.8539 105.696ZM51.3278 106.713C52.209 108.407 51.1244 110.983 49.5654 110.983C47.6674 110.983 46.515 109.288 46.9895 107.255C47.5318 105.221 50.3788 104.882 51.3278 106.713Z" fill="white" fill-opacity="0.8"/>
<path d="M54.9885 108.407L55.0562 112L55.3274 109.017L55.5985 106.035L57.022 108.339L58.3778 110.576L59.4623 108.61L60.6147 106.577L61.0214 109.288C61.4281 111.864 61.4281 111.796 61.4959 108.272L61.6315 104.543L60.2758 106.238C59.5301 107.187 58.92 108.136 58.92 108.407C58.92 109.695 57.6321 108.746 56.8865 106.916C55.5985 103.865 54.8529 104.476 54.9885 108.407Z" fill="white" fill-opacity="0.8"/>
<path d="M64.3428 108.407C64.3428 110.305 64.4783 111.729 64.6139 111.593C65.1562 110.983 65.4951 104.883 64.9528 104.883C64.6139 104.883 64.3428 106.442 64.3428 108.407Z" fill="white" fill-opacity="0.8"/>
<path d="M69.3592 107.052L68.2746 109.153L66.9867 107.526C66.3088 106.645 65.6987 106.171 65.6987 106.577C65.6987 106.916 66.3088 108.001 66.9867 108.95L68.2746 110.577L69.2236 108.611L70.1048 106.645L70.5115 109.289C70.9182 111.932 70.9182 111.932 71.0538 108.407C71.0538 106.509 70.986 104.883 70.7827 104.883C70.6471 104.883 69.9692 105.832 69.3592 107.052Z" fill="white" fill-opacity="0.8"/>
<path d="M73.9009 106.238C73.8331 109.22 74.6465 110.983 76.2734 111.39C78.7137 112 79.9338 110.576 79.7983 107.322L79.7305 104.543L79.3238 107.594C79.0526 109.831 78.5781 110.712 77.6291 110.847C75.9345 111.186 75.0532 110.169 74.511 107.119C74.172 105.357 73.9687 105.086 73.9009 106.238Z" fill="white" fill-opacity="0.8"/>
<path d="M82.7807 108.272L82.8485 112L83.2552 109.085L83.6619 106.102L85.6955 108.882C86.8478 110.373 87.9324 111.661 88.2713 111.661C88.5425 111.661 88.6781 110.034 88.6103 108.068L88.5425 104.543L88.2713 107.526L88.0002 110.576L85.3565 107.526L82.7129 104.543L82.7807 108.272Z" fill="white" fill-opacity="0.8"/>
<path d="M91.6606 108.272C91.6606 110.305 91.7962 111.187 91.9318 110.102C92.0674 109.085 92.0674 107.458 91.9318 106.374C91.7962 105.357 91.6606 106.238 91.6606 108.272Z" fill="white" fill-opacity="0.8"/>
<path d="M94.9821 105.357C95.7955 105.56 96.2022 106.577 96.4056 108.814L96.6089 112L96.7445 108.814C96.8801 106.102 97.0834 105.628 98.4391 105.357C99.2526 105.221 98.5747 105.086 96.8801 105.086C95.1854 105.018 94.372 105.153 94.9821 105.357Z" fill="white" fill-opacity="0.8"/>
<path d="M101.625 105.221C101.693 105.56 102.1 106.509 102.642 107.187C103.184 107.933 103.659 109.288 103.659 110.237C103.726 111.729 103.862 111.661 104.608 109.424C105.15 108.068 105.828 106.509 106.099 106.035C106.438 105.56 106.099 105.831 105.421 106.712L104.065 108.271L102.845 106.373C102.167 105.357 101.625 104.814 101.625 105.221Z" fill="white" fill-opacity="0.8"/>
</svg>
