<svg width="100" height="58" viewBox="0 0 100 58" fill="none" xmlns="http://www.w3.org/2000/svg">
<path d="M96.4444 0.406838C96.8384 0.475715 97.4294 0.475715 97.7578 0.406838C98.0533 0.303522 97.7249 0.234645 97.0026 0.269084C96.2802 0.269084 96.0175 0.337961 96.4444 0.406838Z" fill="black" fill-opacity="0.8"/>
<path d="M94.4741 0.751095C94.7039 0.854411 94.9995 0.819972 95.098 0.716656C95.2293 0.61334 95.0323 0.510025 94.6711 0.544463C94.3099 0.544463 94.2114 0.647779 94.4741 0.751095Z" fill="black" fill-opacity="0.8"/>
<path d="M93.1606 1.09533C93.3905 1.19865 93.686 1.16421 93.7845 1.06089C93.9158 0.957579 93.7188 0.854263 93.3576 0.888701C92.9964 0.888701 92.8979 0.992017 93.1606 1.09533Z" fill="black" fill-opacity="0.8"/>
<path d="M91.2559 1.54308C90.6648 1.95634 91.1902 1.95634 92.0768 1.54308C92.5036 1.33645 92.5693 1.23313 92.2409 1.23313C91.9783 1.23313 91.5186 1.37089 91.2559 1.54308Z" fill="black" fill-opacity="0.8"/>
<path d="M88.8917 2.57632C88.235 2.95515 86.9216 4.05718 85.9366 5.02146L84.1963 6.77783L85.9694 5.15922C86.9545 4.26381 88.432 3.19622 89.2529 2.74851C90.1066 2.30081 90.632 1.92199 90.435 1.92199C90.2708 1.92199 89.5813 2.23194 88.8917 2.57632Z" fill="black" fill-opacity="0.8"/>
<path d="M96.7723 2.43867C95.5245 3.12744 95.5902 3.40295 96.8379 2.74862C97.3961 2.43867 97.823 2.12872 97.823 2.05985C97.823 1.81878 97.7902 1.85322 96.7723 2.43867Z" fill="black" fill-opacity="0.8"/>
<path d="M98.9069 3.33414C98.5457 3.78184 97.9218 4.74612 97.495 5.50377C96.4442 7.32902 95.9845 7.67341 94.1129 7.94892C92.307 8.22442 91.7159 8.70656 93.4891 8.49993L94.6711 8.32774L93.4234 9.49865C92.7338 10.1185 91.3548 11.7027 90.3697 12.977C88.3996 15.5943 85.4444 18.0739 84.328 18.0739C83.3758 18.0739 83.6056 18.2805 84.919 18.5216C85.7071 18.6938 85.9369 18.6249 85.8056 18.2805C85.7071 18.005 86.2653 17.3851 87.2175 16.7652C88.1041 16.1797 89.5817 14.5956 90.5995 13.2525C91.5846 11.8749 93.3905 9.98079 94.6711 8.94764C95.9517 7.94892 97.298 6.60581 97.6263 5.95148C97.9547 5.33158 98.7099 4.29842 99.2352 3.67853C99.7934 3.09307 100.089 2.57649 99.9248 2.57649C99.7278 2.57649 99.2681 2.92088 98.9069 3.33414Z" fill="black" fill-opacity="0.8"/>
<path d="M94.6708 3.81645C94.0797 4.29859 94.0797 4.33303 94.8021 3.95421C95.1961 3.74758 95.5245 3.50651 95.5245 3.43763C95.5245 3.16212 95.3603 3.231 94.6708 3.81645Z" fill="black" fill-opacity="0.8"/>
<path d="M92.2086 5.57237C91.7818 6.12339 91.8146 6.15783 92.34 5.71013C92.6355 5.46906 92.8982 5.19355 92.8982 5.12467C92.8982 4.84916 92.6355 5.02135 92.2086 5.57237Z" fill="black" fill-opacity="0.8"/>
<path d="M90.5669 6.95027L89.7788 7.91455L90.6982 7.08802C91.5191 6.29594 91.7489 6.02043 91.4862 6.02043C91.4206 6.02043 91.0266 6.43369 90.5669 6.95027Z" fill="black" fill-opacity="0.8"/>
<path d="M86.6592 10.6006C85.1159 12.1848 83.5726 13.7001 83.2115 13.9756C82.8503 14.2511 80.6503 16.6274 78.319 19.2791C74.7071 23.3429 75.2653 22.8607 81.8324 16.0075C86.101 11.5649 89.6143 7.87994 89.6143 7.84551C89.6143 7.60444 89.286 7.91438 86.6592 10.6006Z" fill="black" fill-opacity="0.8"/>
<path d="M82.4234 10.3594C82.4234 10.7382 82.5219 10.8415 82.6204 10.566C82.719 10.325 82.6861 10.015 82.5876 9.91169C82.4891 9.77394 82.3906 9.98057 82.4234 10.3594Z" fill="black" fill-opacity="0.8"/>
<path d="M79.0743 11.0826C78.6475 11.6336 78.6803 11.6681 79.2057 11.2204C79.5012 10.9793 79.7639 10.7038 79.7639 10.6349C79.7639 10.3594 79.5012 10.5316 79.0743 11.0826Z" fill="black" fill-opacity="0.8"/>
<path d="M82.752 12.0816C82.752 12.4604 82.8506 12.5637 82.9491 12.2882C83.0476 12.0471 83.0147 11.7372 82.9162 11.6339C82.8177 11.4961 82.7192 11.7027 82.752 12.0816Z" fill="black" fill-opacity="0.8"/>
<path d="M75.8234 15.4908C73.3607 18.4869 72.2115 20.5532 72.2443 21.8275C72.2443 22.4474 72.3757 22.2407 72.6712 21.1043C73.1309 19.3479 73.1637 19.279 75.6592 16.1795C77.7278 13.5622 78.2204 12.9079 78.0562 12.9079C77.9905 12.9079 76.9726 14.0788 75.8234 15.4908Z" fill="black" fill-opacity="0.8"/>
<path d="M80.6831 18.6593C81.0772 18.7282 81.6682 18.7282 81.9965 18.6593C82.2921 18.556 81.9637 18.4871 81.2413 18.5215C80.519 18.5215 80.2563 18.5904 80.6831 18.6593Z" fill="black" fill-opacity="0.8"/>
<path d="M80.3223 21.5521C79.2716 22.3097 78.4507 22.9985 78.4507 23.1018C78.4507 23.274 81.4059 21.1733 82.2267 20.4156C83.0476 19.658 81.9641 20.2779 80.3223 21.5521Z" fill="black" fill-opacity="0.8"/>
<path d="M72.2447 23.2051C72.2447 23.4806 71.391 24.6515 70.3731 25.8568C69.3552 27.0622 68.7642 27.9576 69.0597 27.8543C69.3552 27.7509 70.1104 26.89 70.7343 25.9257C72.0477 24.0316 72.9014 23.8594 73.788 25.2369C74.2477 25.9601 74.2148 26.0635 72.8357 27.3032C72.0477 27.992 70.997 29.0252 70.5044 29.5762L69.5522 30.5749L69.0597 29.8517C68.5015 28.9907 67.5164 28.8185 67.8119 29.6106C67.9433 29.8861 68.1403 30.0239 68.3045 29.9206C68.4686 29.8173 68.6 29.9895 68.6 30.265C68.6 31.367 69.8149 30.7471 72.1462 28.4053C74.182 26.3734 74.5432 25.8913 74.3133 25.2369C74.0835 24.4104 73.591 23.9283 72.9671 23.9283C72.7701 23.9283 72.5074 23.6528 72.4417 23.3084C72.3432 22.964 72.2775 22.9295 72.2447 23.2051Z" fill="black" fill-opacity="0.8"/>
<path d="M77.1368 23.7559C76.6771 24.0314 76.4801 24.238 76.6771 24.2725C76.8413 24.2725 77.301 24.0314 77.6622 23.7559C78.4503 23.136 78.1876 23.1015 77.1368 23.7559Z" fill="black" fill-opacity="0.8"/>
<path d="M75.4297 24.5138C75.6595 24.6171 75.955 24.5827 76.0535 24.4794C76.1849 24.376 75.9879 24.2727 75.6267 24.3072C75.2655 24.3072 75.167 24.4105 75.4297 24.5138Z" fill="black" fill-opacity="0.8"/>
<path d="M4.37392 27.4758C1.45157 30.5408 0.269503 32.9171 0.0396554 36.3954C-0.157357 39.3915 0.368009 41.1823 1.87843 42.5943C2.89633 43.5242 3.22468 43.6275 4.50526 43.4553C5.62166 43.3175 6.24553 43.0076 7.13209 42.0777L8.28132 40.838L10.7768 43.2831C12.1231 44.5918 13.3051 45.5216 13.3708 45.315C13.4365 45.1083 13.0096 44.5229 12.3857 44.0063C11.7947 43.4553 10.7111 42.491 10.0216 41.8022L8.74102 40.5624L9.59473 38.2895C10.8096 35.1211 11.3022 31.6428 10.8425 29.4043C10.1858 26.3049 9.20071 24.9618 7.52611 24.9618C7.09925 24.9618 5.88434 25.926 4.37392 27.4758ZM9.29922 26.5115C10.0216 27.6824 9.95592 27.8202 8.83952 27.2003C8.31416 26.9248 7.39477 26.6837 6.80373 26.6837C5.78584 26.6492 5.753 26.6492 6.34404 26.1671C7.36193 25.375 8.67535 25.5128 9.29922 26.5115ZM9.03653 27.9579C9.39772 28.199 9.79175 28.3023 9.92309 28.199C10.2843 27.8202 10.5798 30.5408 10.3828 32.676C10.2186 34.5701 8.90519 39.116 8.37983 39.7015C8.24849 39.8048 7.4276 39.1505 6.54105 38.2206C5.62166 37.2908 4.89928 36.6709 4.89928 36.8431C4.89928 37.0153 5.58882 37.9107 6.47538 38.8405L8.01864 40.4936L6.80373 41.6989C5.85151 42.5943 5.29331 42.8698 4.30825 42.8698C1.77993 42.8698 0.49935 40.9413 0.49935 37.1186C0.532185 34.949 0.696362 34.2946 1.71426 32.0905C2.37096 30.713 3.22468 29.2666 3.61871 28.8878C4.34108 28.2334 4.34108 28.2334 4.0784 28.9222C3.12618 31.4707 2.4038 35.2933 2.86349 35.2933C3.02767 35.2933 3.32319 34.2602 3.55304 32.986C4.11124 29.7832 5.12913 27.4413 5.98285 27.2691C6.93507 27.0969 8.18282 27.3725 9.03653 27.9579Z" fill="black" fill-opacity="0.8"/>
<path d="M23.8124 25.7192C23.2542 26.6146 21.8423 31.5737 21.4811 33.8811C21.317 35.0176 20.8573 35.8441 19.7409 37.0839C18.9528 37.9793 18.1319 38.737 17.9349 38.737C17.7379 38.737 17.6722 38.0826 17.8036 37.1872C17.8692 36.3263 17.8364 35.6375 17.7051 35.7064C17.5737 35.7752 16.9499 36.4985 16.3588 37.325C14.8156 39.4602 14.2574 39.5635 14.52 37.7383C14.6185 36.9806 14.5857 36.3263 14.4872 36.3263C14.3887 36.3263 13.8633 36.7395 13.338 37.2561L12.3529 38.2204L12.5499 36.8428C12.7469 35.5686 12.7141 35.5342 12.2872 36.1196C11.6634 36.9806 11.6634 37.8416 12.2872 38.3926C12.7141 38.737 12.9111 38.7025 13.4693 38.186C13.929 37.7383 14.0603 37.7038 13.929 38.0826C13.8305 38.3581 13.9618 38.8747 14.2245 39.2536C14.6842 39.9079 14.7499 39.9079 15.8663 38.7714C16.6215 37.9793 17.0484 37.7383 17.0484 38.0826C17.0484 39.5635 18.2961 39.4946 19.9379 37.9449C20.3319 37.5661 20.6602 37.325 20.6602 37.4283C20.6602 37.5316 20.3647 39.0469 20.0035 40.8377C19.2812 44.4193 19.1827 46.1068 19.6752 45.7969C19.8722 45.6936 20.0035 45.1081 20.0035 44.5571C20.0035 43.9716 20.5289 40.9066 21.1856 37.7727C22.0722 33.4334 22.6632 31.3671 23.6483 29.3008C24.3378 27.7855 24.9288 26.3046 24.9288 25.9602C24.9288 24.996 24.3378 24.8582 23.8124 25.7192Z" fill="black" fill-opacity="0.8"/>
<path d="M26.1769 25.4438C25.3888 26.2359 24.5679 29.1976 23.0247 36.7053C21.3501 44.7639 21.153 45.9692 21.6127 45.9692C21.8098 45.9692 21.9739 45.8659 22.0068 45.6937C22.3351 41.1478 24.3709 32.2627 25.7828 29.3009C26.5052 27.7168 26.8992 26.4081 26.8336 25.8226C26.7351 24.8928 26.7022 24.8584 26.1769 25.4438ZM25.947 27.6135C25.553 28.3022 25.4873 28.0956 25.7828 27.2002C25.9142 26.8902 26.0783 26.7181 26.144 26.8214C26.2425 26.8902 26.144 27.2691 25.947 27.6135Z" fill="black" fill-opacity="0.8"/>
<path d="M30.281 27.3378C27.687 29.9551 26.8005 31.4704 26.0453 34.6732C24.3707 41.4231 29.3616 46.3823 33.269 41.8709C33.6302 41.4576 34.0243 41.1476 34.1884 41.1476C34.3854 41.1476 35.4362 42.0775 36.5526 43.214C37.7018 44.3504 38.7854 45.2803 38.9824 45.2803C39.1794 45.2803 38.26 44.1438 36.8809 42.7663L34.4183 40.2867L35.1078 38.8403C37.3078 34.0533 37.275 28.2676 35.0422 25.7536C33.8272 24.376 32.8422 24.7204 30.281 27.3378ZM35.075 26.5801C35.9287 27.7166 35.7974 27.8888 34.5825 27.2C34.0571 26.9245 33.2034 26.6834 32.678 26.6834C31.89 26.6834 31.7915 26.6145 32.1526 26.1668C32.8094 25.3403 34.3198 25.5469 35.075 26.5801ZM34.4511 27.7855C35.8959 28.4742 36.0272 28.6464 36.2242 29.9895C36.5197 32.2625 35.7317 36.3951 34.5496 38.8747L34.0571 39.839L32.4482 38.1859C30.3795 36.0507 29.9855 36.464 31.9885 38.7025C33.3019 40.1834 33.4661 40.4933 33.1377 41.1132C32.678 42.0775 31.1348 42.8696 29.7557 42.8696C28.3437 42.8696 26.702 41.1132 26.3736 39.2191C25.8483 36.2229 27.2602 31.1604 29.1318 29.3696C29.887 28.6464 29.9527 28.6464 29.7228 29.2663C29.1318 30.9538 28.5079 34.0188 28.6064 34.7076C28.6721 35.1553 28.9676 34.3977 29.296 32.9513C30.084 29.3352 30.9377 27.4755 31.89 27.2689C32.284 27.2 32.7108 27.0967 32.7765 27.0622C32.8422 27.0622 33.5974 27.3722 34.4511 27.7855Z" fill="black" fill-opacity="0.8"/>
<path d="M54.9731 27.0968C54.9074 27.3379 54.7104 28.0955 54.5462 28.7499L54.2836 29.9552L51.5911 30.0585C48.1105 30.1963 48.0777 30.8162 51.5582 30.8162C53.9224 30.8162 54.1851 30.8851 54.0209 31.4016C53.9224 31.746 53.6597 32.7792 53.4627 33.7435C53.1672 35.0177 52.5761 36.0509 51.2627 37.635L49.4239 39.8047L48.6687 38.496C47.4538 36.3952 47.7822 34.6044 49.3583 34.6044C49.818 34.6044 49.9165 34.5011 49.6538 34.2256C49.1284 33.6746 48.1105 34.3634 46.9613 36.1197C45.5165 38.2894 44.0061 39.5636 43.4479 39.047C42.7584 38.4616 42.8897 37.1873 43.7763 36.0853C44.9255 34.6389 45.3524 33.6402 44.9583 33.3991C44.4001 33.0547 43.6449 33.9157 42.824 35.8098C42.43 36.7396 41.7405 37.9105 41.3136 38.3927L40.5256 39.2536L40.4271 37.7728C40.2957 36.1197 40.0002 35.9475 39.245 37.1873C38.5226 38.3238 38.0301 37.9794 38.2599 36.5674C38.3913 35.7409 38.3584 35.6032 38.0957 35.982C37.6361 36.6363 37.6361 38.2894 38.0957 38.5649C38.2599 38.7026 38.7196 38.5304 39.0808 38.1861C39.6718 37.635 39.7047 37.635 39.7047 38.496C39.7047 39.7702 40.2629 39.9769 41.3793 39.1159C42.2987 38.3927 42.2987 38.3927 42.6599 39.0815C43.2181 40.1491 44.3016 39.908 45.812 38.3582L47.1583 36.9807L48.0777 38.5993L48.9971 40.2524L48.1105 41.871C47.1911 43.5929 47.0598 44.4194 47.5852 44.7638C48.2419 45.1771 49.5553 43.3174 49.5553 41.9743C49.5553 40.9756 49.8836 40.2868 51.0985 38.7026C51.9523 37.6006 52.6746 36.7396 52.7075 36.7741C52.7403 36.8085 52.3463 39.0815 51.8209 41.8365C50.8359 47.1401 50.7045 48.3799 51.1642 48.3799C51.2955 48.3799 51.5254 47.4845 51.6239 46.4169C51.7224 45.3493 52.4448 41.4233 53.2 37.6695L54.5791 30.8851L57.3701 30.6096C58.9133 30.5062 61.179 30.4718 62.4267 30.5751C63.8058 30.7129 64.5939 30.644 64.4953 30.4374C64.364 30.2652 62.164 30.1274 59.5044 30.1274C55.4985 30.1274 54.7761 30.0585 54.9074 29.6453C55.2686 28.7154 55.5313 26.6836 55.3343 26.6836C55.2029 26.6836 55.0388 26.8902 54.9731 27.0968ZM48.9314 42.6286C48.6359 43.4207 47.9135 44.2128 47.9135 43.7307C47.9135 43.3174 48.9642 41.4233 49.0956 41.5955C49.1941 41.6644 49.0956 42.1465 48.9314 42.6286Z" fill="black" fill-opacity="0.8"/>
<path d="M67.6147 28.4397C67.6147 28.6119 67.7789 28.6807 67.9431 28.5774C68.1401 28.4741 68.2715 28.3019 68.2715 28.1986C68.2715 28.1297 68.1401 28.0609 67.9431 28.0609C67.7789 28.0609 67.6147 28.233 67.6147 28.4397Z" fill="black" fill-opacity="0.8"/>
<path d="M66.0713 30.8851C65.4803 31.6083 63.8714 35.2932 64.0684 35.4998C64.331 35.7065 68.4355 32.7792 68.4683 32.3315C68.534 31.9871 68.5011 31.9871 68.4026 32.297C68.1728 32.9858 65.94 34.019 65.546 33.6057C65.1191 33.158 65.8415 31.2983 66.7609 30.644C67.1221 30.3685 67.2862 30.1274 67.0892 30.1274C66.8922 30.1274 66.4325 30.4718 66.0713 30.8851ZM65.4803 33.9156C65.5788 34.0878 65.5131 34.26 65.3489 34.26C65.1519 34.26 64.9878 34.0878 64.9878 33.9156C64.9878 33.709 65.0534 33.5713 65.1191 33.5713C65.2176 33.5713 65.3818 33.709 65.4803 33.9156Z" fill="black" fill-opacity="0.8"/>
<path d="M66.3015 32.228C65.9403 32.8823 65.9731 32.9167 66.6298 32.5379C66.991 32.3313 67.2209 32.0213 67.1224 31.8147C66.8269 31.367 66.6955 31.4359 66.3015 32.228Z" fill="black" fill-opacity="0.8"/>
<path d="M17.7051 34.2942C17.7051 34.4664 17.8693 34.5352 18.0334 34.4319C18.2304 34.3286 18.3618 34.1564 18.3618 34.0531C18.3618 33.9842 18.2304 33.9153 18.0334 33.9153C17.8693 33.9153 17.7051 34.0875 17.7051 34.2942Z" fill="black" fill-opacity="0.8"/>
<path d="M2.3382 53.9587C1.78 54.5442 1.84567 55.8184 2.46954 56.4383C3.02774 57.0238 4.11131 57.1615 4.37399 56.6794C4.4725 56.5416 4.20981 56.4727 3.81579 56.5416C2.79789 56.7483 2.14119 55.8873 2.40387 54.7164C2.60088 53.9587 2.76506 53.8554 3.58594 53.9587C4.11131 54.0276 4.4725 53.9932 4.37399 53.821C4.11131 53.4077 2.79789 53.4766 2.3382 53.9587Z" fill="black" fill-opacity="0.8"/>
<path d="M6.01588 54.4066C5.52335 55.1987 5.52335 55.3365 6.01588 56.1286C6.93527 57.575 8.83972 56.9207 8.83972 55.1299C8.83972 53.4424 6.93527 52.9602 6.01588 54.4066ZM8.38002 54.751C8.77405 56.4041 6.93527 57.4028 6.21289 55.9564C5.72036 54.9921 6.34423 53.8901 7.36213 53.8901C7.95317 53.8901 8.21585 54.1311 8.38002 54.751Z" fill="black" fill-opacity="0.8"/>
<path d="M10.7441 53.8556L11.8277 54.0622L10.8426 55.2675C10.2844 55.9219 9.85754 56.5762 9.82471 56.714C9.82471 56.8862 10.4486 56.955 11.2366 56.9206L12.6157 56.8862L11.368 56.7484L10.1531 56.6106L11.3351 55.0609L12.5172 53.5456L11.1053 53.58C9.7262 53.6489 9.7262 53.6489 10.7441 53.8556Z" fill="black" fill-opacity="0.8"/>
<path d="M13.4365 53.7522C13.4365 53.9244 13.6664 54.4065 13.9291 54.7854C14.1917 55.1297 14.4216 55.8185 14.4544 56.3007L14.5201 57.1616L14.6514 56.3007C14.7499 55.853 15.0126 55.1642 15.2753 54.7854C15.538 54.4065 15.735 53.9244 15.735 53.7178C15.7022 53.5456 15.4723 53.7866 15.2096 54.3032C14.9469 54.8542 14.6514 55.2675 14.5858 55.2675C14.5201 55.2675 14.2246 54.8542 13.9619 54.3032C13.6992 53.7866 13.4694 53.5456 13.4365 53.7522Z" fill="black" fill-opacity="0.8"/>
<path d="M19.084 53.9588C18.8541 54.1999 18.6899 54.7854 18.6899 55.2675C18.6899 55.7496 18.8541 56.3351 19.084 56.5762C19.5437 57.0583 20.8571 57.1272 21.1198 56.6795C21.2183 56.5417 20.9556 56.4728 20.5616 56.5417C19.6422 56.7484 18.9198 55.9218 19.084 54.8542C19.1496 54.2343 19.3795 54.0621 20.2332 54.0621C20.7914 54.0621 21.1854 53.9588 21.0869 53.8211C20.8571 53.4078 19.5108 53.5111 19.084 53.9588Z" fill="black" fill-opacity="0.8"/>
<path d="M22.6961 53.9587C21.7767 54.9229 22.6304 56.9893 23.9438 56.9893C24.305 56.9893 24.8304 56.6104 25.1259 56.1283C25.6184 55.3362 25.6184 55.1984 25.1259 54.4064C24.5348 53.4765 23.3528 53.2699 22.6961 53.9587ZM24.8632 54.4752C25.2901 55.3362 24.7647 56.6449 24.0095 56.6449C23.0901 56.6449 22.5319 55.7839 22.7617 54.7507C23.0244 53.7176 24.4035 53.5454 24.8632 54.4752Z" fill="black" fill-opacity="0.8"/>
<path d="M26.6361 55.3364L26.6689 57.1616L26.8002 55.6463L26.9316 54.131L27.6211 55.3019L28.2778 56.4384L28.8032 55.4397L29.3614 54.4065L29.5584 55.7841C29.7554 57.0927 29.7554 57.0583 29.7883 55.2675L29.8539 53.3734L29.1972 54.2343C28.836 54.7165 28.5405 55.1986 28.5405 55.3364C28.5405 55.9907 27.9166 55.5086 27.5555 54.5787C26.9316 53.029 26.5704 53.3389 26.6361 55.3364Z" fill="black" fill-opacity="0.8"/>
<path d="M31.1675 55.3363C31.1675 56.3006 31.2332 57.0238 31.2988 56.9549C31.5615 56.645 31.7257 53.5455 31.463 53.5455C31.2988 53.5455 31.1675 54.3376 31.1675 55.3363Z" fill="black" fill-opacity="0.8"/>
<path d="M33.5973 54.6478L33.072 55.7154L32.4481 54.8889C32.1197 54.4412 31.8242 54.2001 31.8242 54.4068C31.8242 54.579 32.1197 55.13 32.4481 55.6121L33.072 56.4386L33.5317 55.4399L33.9585 54.4412L34.1555 55.7843C34.3525 57.1274 34.3525 57.1274 34.4182 55.3366C34.4182 54.3723 34.3854 53.5458 34.2869 53.5458C34.2212 53.5458 33.8928 54.0279 33.5973 54.6478Z" fill="black" fill-opacity="0.8"/>
<path d="M35.7973 54.2344C35.7645 55.7497 36.1585 56.6452 36.9465 56.8518C38.1286 57.1617 38.7197 56.4385 38.654 54.7855L38.6211 53.3735L38.4241 54.9232C38.2928 56.0597 38.0629 56.5074 37.6032 56.5763C36.7824 56.7485 36.3555 56.2319 36.0928 54.6822C35.9286 53.7867 35.8301 53.649 35.7973 54.2344Z" fill="black" fill-opacity="0.8"/>
<path d="M40.0988 55.2675L40.1316 57.1616L40.3286 55.6808L40.5256 54.1655L41.5107 55.5774C42.0689 56.3351 42.5942 56.9894 42.7584 56.9894C42.8898 56.9894 42.9554 56.1629 42.9226 55.1642L42.8898 53.3734L42.7584 54.8887L42.6271 56.4384L41.3465 54.8887L40.0659 53.3734L40.0988 55.2675Z" fill="black" fill-opacity="0.8"/>
<path d="M44.3999 55.2672C44.3999 56.3004 44.4656 56.7481 44.5312 56.197C44.5969 55.6805 44.5969 54.8539 44.5312 54.3029C44.4656 53.7863 44.3999 54.234 44.3999 55.2672Z" fill="black" fill-opacity="0.8"/>
<path d="M46.0089 53.7866C46.4029 53.89 46.5999 54.4065 46.6984 55.543L46.7969 57.1616L46.8626 55.543C46.9283 54.1655 47.0268 53.9244 47.6835 53.7866C48.0775 53.7178 47.7492 53.6489 46.9283 53.6489C46.1074 53.6144 45.7134 53.6833 46.0089 53.7866Z" fill="black" fill-opacity="0.8"/>
<path d="M49.2271 53.7177C49.2599 53.8899 49.4569 54.372 49.7196 54.7164C49.9823 55.0952 50.2121 55.784 50.2121 56.2661C50.2449 57.0238 50.3106 56.9893 50.6718 55.8529C50.9345 55.1641 51.2628 54.372 51.3942 54.1309C51.5584 53.8899 51.3942 54.0276 51.0658 54.4753L50.4091 55.2674L49.8181 54.3031C49.4897 53.7866 49.2271 53.511 49.2271 53.7177Z" fill="black" fill-opacity="0.8"/>
</svg>
